# xmcd
#
# Track frame offsets:
#	150
#	17854
#	35377
#	51927
#	69932
#	86540
#	104796
#	120035
#	135461
#	152554
#	171698
#	186355
#	200765
#	217259
#	235278
#
# Disc length: 3378 seconds
#
# Revision: 3
# Processed by: cddbd v1.5.2PL0 Copyright (c) Steve Scherf et al.
# Submitted via: EasyCDDAExtractor 15.3.0.1
#
DISCID=da0d300f
DTITLE=Enrique Iglesias - Insomniac
DYEAR=2007
DGENRE=Pop
TTITLE0=Ring My Bells
TTITLE1=Push (Featuring Lil' Wayne)
TTITLE2=Do You Know (The Ping Pong Song)
TTITLE3=Somebody's Me
TTITLE4=On Top Of You
TTITLE5=Tired Of Being Sorry
TTITLE6=Miss You
TTITLE7=Wish I Was Your Lover
TTITLE8=Little Girl
TTITLE9=Stay Here Tonight
TTITLE10=Sweet Isabel
TTITLE11=Don't You Forget About Me
TTITLE12=Dimelo
TTITLE13=Alguien Soy Yo
TTITLE14=Amigo Vulnerable
EXTD=
EXTT0=
EXTT1=
EXTT2=
EXTT3=
EXTT4=
EXTT5=
EXTT6=
EXTT7=
EXTT8=
EXTT9=
EXTT10=
EXTT11=
EXTT12=
EXTT13=
EXTT14=
PLAYORDER=
